<?xml version="1.0" standalone="no"?>
<!DOCTYPE svg PUBLIC "-//W3C//DTD SVG 20010904//EN"
 "http://www.w3.org/TR/2001/REC-SVG-20010904/DTD/svg10.dtd">
<svg version="1.0" xmlns="http://www.w3.org/2000/svg"
 width="1280.000000pt" height="1262.000000pt" viewBox="0 0 1280.000000 1262.000000"
 preserveAspectRatio="xMidYMid meet">
<metadata>
Created by potrace 1.15, written by Peter Selinger 2001-2017
</metadata>
<g transform="translate(0.000000,1262.000000) scale(0.100000,-0.100000)"
fill="#ffffff" stroke="none">
<path d="M5435 12614 c-658 -52 -1254 -274 -1820 -679 -170 -122 -304 -234
-560 -469 -379 -348 -582 -523 -854 -735 -678 -528 -1195 -773 -1544 -730
-106 13 -167 38 -283 115 -148 98 -168 107 -231 102 -62 -5 -100 -29 -126 -79
-41 -77 4 -183 125 -294 237 -217 624 -316 993 -256 516 85 1008 323 1630 791
99 74 324 250 500 389 570 453 827 639 1095 789 465 260 838 346 1290 297 532
-56 986 -246 1445 -604 105 -82 485 -448 485 -468 0 -5 -52 -20 -115 -32 -877
-172 -1682 -635 -2277 -1311 -545 -618 -892 -1389 -987 -2195 -16 -135 -31
-338 -31 -425 l0 -76 -54 -63 c-241 -279 -403 -639 -451 -1007 -34 -259 -9
-565 66 -804 92 -293 240 -544 448 -762 170 -178 334 -299 548 -403 106 -52
329 -135 365 -135 11 0 30 -24 51 -63 19 -34 78 -143 132 -242 200 -368 477
-809 698 -1113 53 -73 97 -134 97 -136 0 -2 -84 -6 -187 -9 -274 -8 -461 -45
-698 -138 -166 -64 -335 -172 -356 -226 -20 -53 41 -114 94 -94 14 6 45 25 69
44 25 18 85 54 134 79 262 135 603 201 944 182 l130 -7 124 -147 124 -148 -35
-7 c-59 -11 -216 -62 -309 -100 -187 -77 -429 -223 -614 -372 -110 -87 -315
-291 -325 -321 -16 -52 43 -114 93 -98 11 4 58 45 104 92 317 327 744 577
1115 654 l88 18 82 -81 83 -81 -78 -41 c-178 -92 -313 -229 -436 -441 -105
-181 -215 -495 -233 -666 -5 -51 -3 -59 20 -82 30 -30 66 -33 97 -8 16 13 29
48 50 142 99 432 290 752 537 899 59 35 141 71 162 71 3 0 55 -43 115 -95 471
-410 904 -616 1296 -618 209 0 382 44 616 157 224 109 427 248 673 462 137
119 126 116 244 68 183 -73 347 -244 471 -492 55 -110 137 -352 162 -477 25
-127 72 -166 138 -114 31 24 33 54 11 161 -87 413 -289 776 -534 957 -65 48
-202 121 -228 121 -24 0 -13 15 62 90 l75 75 100 -18 c372 -63 785 -295 1130
-634 63 -62 125 -116 138 -119 28 -8 70 19 82 52 16 40 -5 73 -118 184 -336
330 -760 576 -1130 656 l-79 17 115 138 115 138 66 7 c116 14 437 8 551 -10
262 -42 510 -134 661 -247 29 -22 64 -42 76 -45 46 -12 102 51 88 97 -16 48
-201 166 -359 228 -247 97 -423 130 -728 139 l-218 7 102 140 c276 382 554
833 820 1329 l53 99 95 33 c993 351 1521 1422 1190 2414 -66 200 -159 379
-280 541 l-57 76 -6 214 c-12 425 -74 780 -207 1179 -384 1160 -1284 2092
-2442 2528 -231 88 -509 162 -773 207 l-100 18 -45 96 c-93 199 -245 396 -486
631 -511 497 -1223 875 -1932 1024 -221 47 -410 67 -657 71 -126 1 -252 1
-280 -1z"/>
</g>
</svg>
